<svg id="Layer_1" data-name="Layer 1" xmlns="http://www.w3.org/2000/svg" viewBox="0 0 1283 646"><defs><style>.cls-1{fill:#fd5e68;}.cls-2{fill:#0188b5;}.cls-3{fill:#fff;}</style></defs><circle cx="323.17" cy="322.25" r="214"/><path class="cls-1" d="M321.21,268.1a51.75,51.75,0,0,0-51.75,51.76V426.57c0,.51,0,1,0,1.52.57,12.05,9.42,22,21.12,25a135.06,135.06,0,0,0,33.75,4.05C397.92,456.65,458,396.56,458.46,323a135.06,135.06,0,0,0-4-33.75c-2.93-11.7-12.91-20.55-25-21.12C429,268.12,321.21,268.1,321.21,268.1Z"/><path class="cls-2" d="M188.63,319.61a135.26,135.26,0,0,0,4.59,37.66,26.84,26.84,0,0,0,24.44,20c.49,0,1,0,1.48,0H325.85A51.75,51.75,0,0,0,377.6,325.5V218.79c0-.51,0-1,0-1.51a28.68,28.68,0,0,0-22-26.2,135.2,135.2,0,0,0-34.36-3.81C248.89,188.49,190,247.31,188.63,319.61Z"/><path class="cls-3" d="M321.21,268.1a51.75,51.75,0,0,0-51.75,51.75v57.41h56.39A51.75,51.75,0,0,0,377.6,325.5V268.1Z"/><path d="M859.93,268.53h17.61l47.6,108.94H905.05l-11-26.12H847.19a6.45,6.45,0,0,0-5.93,3.93l-9.46,22.19H812.33ZM885,329.64l-16.59-38.39-18.55,43.26h31.94A3.49,3.49,0,0,0,885,329.64Z"/><path d="M1084.38,269.3h19v45h47.28a4.33,4.33,0,0,0,4.33-4.33V269.3h19V377.47h-19V331.89h-47.27a4.33,4.33,0,0,0-4.34,4.33v41.25h-19Z"/><path d="M999.11,381c-9.92,0-18.23-3-24.71-8.87s-10.4-14.25-12-24.87l-.11-.79,18.87-4.16s2.18,11.8,4,14.19l0,0c3.34,4.64,8.11,6.9,14.56,6.9a16.93,16.93,0,0,0,12.53-5,17.6,17.6,0,0,0,5-12.84,17.88,17.88,0,0,0-.87-5.72,14.46,14.46,0,0,0-2.67-4.73A21.78,21.78,0,0,0,1009,331a47,47,0,0,0-7.14-3.75L991,322.72c-15.64-6.61-23.57-16.47-23.57-29.29a28,28,0,0,1,10-21.8c6.57-5.83,14.86-8.79,24.63-8.79,13.21,0,23.66,6.5,31.06,19.33l.42.74-15.22,9-.44-.76c-2.48-4.3-4.85-7.13-7-8.4l0,0a18.65,18.65,0,0,0-20,1.6,11.47,11.47,0,0,0-4.35,9.22c0,5.07,3.92,9.25,11.67,12.43l11.19,4.58c9.21,3.72,16,8.35,20.34,13.74s6.51,12.19,6.51,20.06c0,10.51-3.56,19.33-10.58,26.2S1009.57,381,999.11,381Z"/><polygon points="774.57 377.73 761.54 268.59 743.62 268.59 740.36 268.59 707.79 320.72 675.21 268.59 671.95 268.59 654.03 268.59 641 377.73 658.92 377.73 669.16 291.97 707.79 351.67 746.41 291.97 756.65 377.73 774.57 377.73"/></svg>
